<?xml version="1.0" encoding="utf-8"?>
<!-- Generator: Adobe Illustrator 21.0.2, SVG Export Plug-In . SVG Version: 6.00 Build 0)  -->
<svg version="1.1" id="Layer_1" xmlns="http://www.w3.org/2000/svg" xmlns:xlink="http://www.w3.org/1999/xlink" x="0px" y="0px"
	 viewBox="0 0 2000 2000" style="enable-background:new 0 0 2000 2000;" xml:space="preserve">
<style type="text/css">
	.st0{fill:#89C555;}
	.st1{fill:#6EA244;}
	.st2{opacity:0.5;}
	.st3{fill:#C1976C;}
	.st4{fill:#FFFFFF;}
	.st5{fill:#3C2618;}
	.st6{fill:#8A603D;}
	.st7{fill:#EC6CA6;}
	.st8{fill:#86A1B3;}
	.st9{fill:#3C2417;}
	.st10{fill:#89C454;}
</style>
<rect x="-5" y="-9.1" class="st0" width="2017.8" height="2017"/>
<circle class="st1" cx="1011" cy="1007.9" r="872"/>
<g>
	<g class="st2">
		<g>
			<path class="st3" d="M302.7,608.4c0-8.6,7.4-16,16-16c8.6,0,16,7.4,16,16c0,8.6-6.1,16-16,16C310.1,624.4,302.7,617,302.7,608.4z
				"/>
		</g>
	</g>
	<g>
		<g>
			<path class="st4" d="M1671.5,459.6h-139c-92.2,0-303.8,188.2-303.8,188.2H852.5c0,0-252.1-188.2-344.4-188.2h-139
				c-92.2,0-137.7,50.4-137.7,113.1s45.5,113.1,137.7,113.1h139c3.7,0,6.1,0,9.8,0V1318c0,168.5,226.3,305,506.7,305
				s506.7-136.5,506.7-305V685.9c0,0,1.2,0,2.5,0h139c92.2,0,135.3-50.4,135.3-113.1C1806.8,510,1763.8,459.6,1671.5,459.6z"/>
		</g>
		<g>
			<path class="st5" d="M1024.6,1639c-289,0-523.9-143.9-523.9-322.2V701.8H369.1c-94.7,0-155-51.7-155-130.4s61.5-130.4,155-130.4
				h139c91,0,308.7,157.4,350.5,188.2h364c38.1-33.2,218.9-188.2,309.9-188.2h139c111.9,0,152.5,67.6,152.5,130.4
				s-40.6,130.4-152.5,130.4h-124.2v614.9C1547.3,1495.1,1312.4,1639,1024.6,1639z M535.2,666.2v650.6
				c0,158.6,220.1,287.8,489.5,287.8s489.5-129.1,489.5-287.8V666.2h17.2h140.2c75,0,118.1-34.4,118.1-94.7
				c0-60.3-43-94.7-118.1-94.7h-139c-70.1,0-234.9,132.8-291.5,183.2l-4.9,4.9H847.5l-4.9-3.7c-68.9-51.7-263.2-184.5-334.5-184.5
				h-139c-75,0-120.5,35.7-120.5,94.7c0,60.3,45.5,94.7,120.5,94.7h139c2.5,0,6.1,0,8.6,0H535.2z"/>
		</g>
	</g>
	<g>
		<g>
			<path class="st6" d="M1483.4,1104c0-120.5-97.2-217.7-217.7-217.7S1048,983.5,1048,1104s97.2,217.7,217.7,217.7
				C1386.2,1321.7,1483.4,1223.3,1483.4,1104z"/>
		</g>
	</g>
	<g>
		<g>
			<path class="st7" d="M864.8,1406.5c0,84.9,68.9,153.7,153.7,153.7s153.7-68.9,153.7-153.7"/>
		</g>
		<g>
			<path class="st5" d="M1018.5,1577.5c-94.7,0-170.9-76.2-170.9-170.9c0-9.8,7.4-17.2,17.2-17.2s17.2,7.4,17.2,17.2
				c0,75,61.5,136.5,136.5,136.5s136.5-61.5,136.5-136.5c0-9.8,7.4-17.2,17.2-17.2c9.8,0,17.2,7.4,17.2,17.2
				C1189.4,1501.2,1113.2,1577.5,1018.5,1577.5z"/>
		</g>
	</g>
	<g>
		<g>
			<path class="st4" d="M715.9,1348.7c0,84.9,68.9,153.7,153.7,153.7s153.7-68.9,153.7-153.7"/>
		</g>
		<g>
			<path class="st5" d="M869.7,1523.4c-97.2,0-175.9-78.7-175.9-175.9c0-12.3,9.8-20.9,20.9-20.9c12.3,0,20.9,9.8,20.9,20.9
				c0,72.6,59,132.8,132.8,132.8c72.6,0,132.8-59,132.8-132.8c0-12.3,9.8-20.9,20.9-20.9s20.9,9.8,20.9,20.9
				C1044.3,1444.7,965.6,1523.4,869.7,1523.4z"/>
		</g>
	</g>
	<g>
		<g>
			<path class="st4" d="M1020.9,1348.7c0,84.9,68.9,153.7,153.7,153.7s153.7-68.9,153.7-153.7"/>
		</g>
		<g>
			<path class="st5" d="M1174.7,1523.4c-97.2,0-175.9-78.7-175.9-175.9c0-12.3,9.8-20.9,20.9-20.9s20.9,9.8,20.9,20.9
				c0,72.6,59,132.8,132.8,132.8c72.6,0,132.8-59,132.8-132.8c0-12.3,9.8-20.9,20.9-20.9c11.1,0,20.9,9.8,20.9,20.9
				C1350.5,1444.7,1271.8,1523.4,1174.7,1523.4z"/>
		</g>
	</g>
	<g class="st2">
		<g>
			<path class="st3" d="M1270.6,1362.3c0-16-13.5-30.7-30.7-30.7c-16,0-30.7,13.5-30.7,30.7c0,16,13.5,30.7,30.7,30.7
				C1257.1,1393,1270.6,1379.5,1270.6,1362.3z"/>
		</g>
	</g>
	<g class="st2">
		<g>
			<path class="st3" d="M861.1,1469.3c-81.2,0-108.2-72.6-111.9-110.7c0-7.4,4.9-13.5,11.1-13.5c7.4,0,13.5,4.9,13.5,11.1
				c0,3.7,8.6,87.3,86.1,87.3c7.4,0,13.5,6.1,13.5,13.5S868.4,1469.3,861.1,1469.3z"/>
		</g>
	</g>
	<g>
		<g>
			<path class="st4" d="M1354.2,679.7c0-49.2-143.9-89.8-322.2-89.8s-322.2,40.6-322.2,89.8"/>
		</g>
		<g>
			<path class="st5" d="M1371.4,679.7H1337c0-25.8-104.5-72.6-305-72.6s-305,48-305,72.6h-34.4c0-70.1,170.9-107,339.4-107
				S1371.4,609.6,1371.4,679.7z"/>
		</g>
	</g>
	<g>
		<g>
			<path class="st5" d="M1151.3,1308.2c0-70.1-57.8-127.9-127.9-127.9s-127.9,57.8-127.9,127.9c0,70.1,57.8,127.9,127.9,127.9
				C1093.5,1434.8,1151.3,1378.3,1151.3,1308.2z"/>
		</g>
	</g>
	<g>
		<g>
			<path class="st4" d="M1084.9,1223.3c0-7.4-6.1-13.5-13.5-13.5c-7.4,0-13.5,6.1-13.5,13.5c0,7.4,6.1,13.5,13.5,13.5
				C1078.7,1238.1,1084.9,1231.9,1084.9,1223.3z"/>
		</g>
	</g>
	<g class="st2">
		<g>
			<path class="st3" d="M1366.5,625.6c-3.7,0-7.4-1.2-9.8-4.9c-4.9-4.9-3.7-13.5,1.2-18.4c3.7-3.7,92.2-79.9,159.9-91
				c65.2-11.1,156.2-3.7,159.9-2.5c7.4,0,12.3,7.4,12.3,13.5c0,7.4-7.4,12.3-13.5,12.3c-1.2,0-92.2-7.4-153.7,2.5
				c-60.3,9.8-146.3,84.9-146.3,84.9C1372.7,624.4,1369,625.6,1366.5,625.6z"/>
		</g>
	</g>
	<g class="st2">
		<g>
			<path class="st3" d="M291.7,535.8c0-8.6,7.4-16,16-16c8.6,0,16,7.4,16,16c0,8.6-6.1,16-16,16C299,551.8,291.7,544.4,291.7,535.8z
				"/>
		</g>
	</g>
	<g class="st2">
		<g>
			<path class="st3" d="M681.5,617c-2.5,0-6.1-1.2-8.6-2.5c-1.2-1.2-88.5-73.8-148.8-82.4c-61.5-8.6-152.5,0-153.7,0
				c-7.4,1.2-13.5-4.9-14.8-11.1c-1.2-7.4,4.9-13.5,11.1-14.8c3.7,0,94.7-9.8,159.9,0c67.6,9.8,157.4,84.9,161.1,88.5
				c4.9,4.9,6.1,12.3,1.2,18.4C688.9,615.8,685.2,617,681.5,617z"/>
		</g>
	</g>
	<g class="st2">
		<g>
			<path class="st3" d="M574.5,1274.9c-7.4,0-13.5-6.1-13.5-13.5V783c0-7.4,6.1-13.5,13.5-13.5c7.4,0,13.5,6.1,13.5,13.5v478.4
				C586.8,1268.8,581.9,1274.9,574.5,1274.9z"/>
		</g>
	</g>
	<g class="st2">
		<g>
			<path class="st3" d="M596.7,1338.9c0-9.8-7.4-17.2-17.2-17.2c-9.8,0-17.2,7.4-17.2,17.2s7.4,17.2,17.2,17.2
				C589.3,1354.9,596.7,1347.5,596.7,1338.9z"/>
		</g>
	</g>
	<g>
		<g>
			<g>
				<g>
					<g>
						<g>
							<path class="st4" d="M791,1279.9c-71.3,0-127.9-57.8-127.9-127.9c0-67.6,55.3-143.9,127.9-143.9
								c73.8,0,127.9,76.2,127.9,143.9C920.1,1222.1,862.3,1279.9,791,1279.9z"/>
						</g>
					</g>
					<g>
						<g>
							<path class="st5" d="M791,1021.6c64,0,115.6,66.4,115.6,130.4s-51.7,115.6-115.6,115.6c-64,0-115.6-51.7-115.6-115.6
								C676.6,1088,728.2,1021.6,791,1021.6 M791,995.8c-81.2,0-141.4,82.4-141.4,156.2c0,77.5,62.7,141.4,141.4,141.4
								s141.4-62.7,141.4-141.4C932.4,1078.2,872.1,995.8,791,995.8L791,995.8z"/>
						</g>
					</g>
				</g>
				<g>
					<g>
						<path class="st8" d="M891.8,1152c0-55.3-45.5-100.8-100.8-100.8s-100.8,45.5-100.8,100.8c0,55.3,45.5,100.8,100.8,100.8
							C847.5,1252.8,891.8,1207.3,891.8,1152z"/>
					</g>
				</g>
				<g>
					<g>
						<path class="st9" d="M862.3,1152c0-39.4-32-70.1-70.1-70.1c-39.4,0-70.1,32-70.1,70.1c0,38.1,32,70.1,70.1,70.1
							C830.3,1222.1,862.3,1191.3,862.3,1152z"/>
					</g>
					<g>
						<path class="st9" d="M791,1235.6c-46.7,0-83.6-36.9-83.6-83.6s36.9-83.6,83.6-83.6c46.7,0,83.6,36.9,83.6,83.6
							C874.6,1197.5,837.7,1235.6,791,1235.6z M791,1094.2c-32,0-57.8,25.8-57.8,57.8c0,32,25.8,57.8,57.8,57.8
							c32,0,57.8-25.8,57.8-57.8C848.8,1120,822.9,1094.2,791,1094.2z"/>
					</g>
				</g>
			</g>
			<g>
				<g>
					<path class="st4" d="M756.5,1183.9c-8.6-6.1-20.9-3.7-27.1,4.9c-6.1,8.6-3.7,20.9,4.9,28.3c9.8,6.1,20.9,3.7,28.3-4.9
						C767.6,1202.4,765.1,1190.1,756.5,1183.9z"/>
				</g>
			</g>
			<g>
				<g>
					<path class="st4" d="M816.8,1150.7c23.4,4.9,45.5-11.1,50.4-34.4c4.9-23.4-11.1-45.5-34.4-50.4c-23.4-4.9-45.5,11.1-50.4,34.4
						C777.4,1123.7,793.4,1147,816.8,1150.7z"/>
				</g>
			</g>
		</g>
		<g>
			<g>
				<g>
					<g>
						<g>
							<path class="st4" d="M1276.7,1279.9c-71.3,0-127.9-57.8-127.9-127.9c0-67.6,55.3-143.9,127.9-143.9
								c73.8,0,127.9,76.2,127.9,143.9C1404.7,1223.3,1348.1,1279.9,1276.7,1279.9z"/>
						</g>
					</g>
					<g>
						<g>
							<path class="st5" d="M1276.7,1021.6c64,0,115.6,66.4,115.6,130.4s-51.7,115.6-115.6,115.6s-115.6-51.7-115.6-115.6
								C1161.1,1088,1212.8,1021.6,1276.7,1021.6 M1276.7,995.8c-81.2,0-141.4,82.4-141.4,156.2c0,77.5,62.7,141.4,141.4,141.4
								c77.5,0,141.4-62.7,141.4-141.4C1418.2,1078.2,1357.9,995.8,1276.7,995.8L1276.7,995.8z"/>
						</g>
					</g>
				</g>
				<g>
					<g>
						<path class="st8" d="M1175.9,1152c0-55.3,45.5-100.8,100.8-100.8c55.3,0,100.8,45.5,100.8,100.8
							c0,55.3-45.5,100.8-100.8,100.8C1221.4,1252.8,1175.9,1208.5,1175.9,1152z"/>
					</g>
				</g>
				<g>
					<g>
						<path class="st9" d="M1206.6,1152c0-39.4,32-70.1,70.1-70.1c38.1,0,70.1,32,70.1,70.1c0,39.4-32,70.1-70.1,70.1
							C1238.6,1222.1,1206.6,1191.3,1206.6,1152z"/>
					</g>
					<g>
						<path class="st9" d="M1276.7,1235.6c-46.7,0-83.6-36.9-83.6-83.6s36.9-83.6,83.6-83.6s83.6,36.9,83.6,83.6
							S1323.5,1235.6,1276.7,1235.6z M1276.7,1094.2c-32,0-57.8,25.8-57.8,57.8c0,32,25.8,57.8,57.8,57.8s57.8-25.8,57.8-57.8
							C1334.6,1120,1308.7,1094.2,1276.7,1094.2z"/>
					</g>
				</g>
			</g>
			<g>
				<g>
					<path class="st4" d="M1312.4,1183.9c9.8-6.1,20.9-3.7,28.3,4.9c6.1,8.6,3.7,20.9-4.9,28.3c-8.6,6.1-20.9,3.7-27.1-4.9
						C1301.3,1202.4,1303.8,1190.1,1312.4,1183.9z"/>
				</g>
			</g>
			<g>
				<g>
					<path class="st4" d="M1252.2,1150.7c-23.4,4.9-45.5-11.1-50.4-34.4c-4.9-23.4,11.1-45.5,34.4-50.4
						c23.4-4.9,45.5,11.1,50.4,34.4C1290.3,1124.9,1275.5,1147,1252.2,1150.7z"/>
				</g>
			</g>
		</g>
	</g>
</g>
<g>
	<rect x="483.5" y="757.2" class="st10" width="1081" height="127.9"/>
</g>
</svg>
